<svg width="241" height="264" viewBox="0 0 241 264" fill="none" xmlns="http://www.w3.org/2000/svg">
<path d="M217.316 242.361C215.417 243.364 213.34 243.75 211.182 243.75C150.707 243.746 90.2323 243.752 29.7575 243.729C26.6891 243.728 23.8181 242.989 21.6023 240.645C20.8004 239.796 20.3901 238.822 20.3901 237.672C20.3892 216.962 20.3892 197.76 20.3915 177.051C20.3915 176.822 20.4238 176.593 20.4566 176.158C50.9646 195.395 84.0901 205.696 120.159 206.27C156.228 206.845 189.696 197.718 220.788 179.224C220.788 179.889 220.788 180.339 220.788 180.789C220.788 200.03 220.762 217.765 220.819 237.007C220.827 239.67 219.45 241.234 217.316 242.361ZM21.3945 63.0145C38.1684 63.0369 54.0815 63.0425 70.8551 63.0058C71.9757 63.0033 71.91 63.5562 71.91 64.3028C71.9019 89.2161 71.9034 112.191 71.9034 137.105C71.9034 137.439 71.8988 137.772 71.9049 138.105C71.9324 139.61 72.4614 140.135 74.0071 140.138C78.293 140.147 84.0855 140.142 88.3714 140.142C88.9788 140.142 89.5872 140.156 90.1941 140.137C91.5316 140.094 92.0632 139.553 92.1039 138.215C92.1131 137.915 92.1059 137.615 92.1059 137.315C92.1059 112.468 92.1059 89.5591 92.1059 64.713C92.1059 64.2156 92.1059 63.7182 92.1059 63.0981C92.5229 63.0731 92.8773 63.0338 93.2316 63.0338C111.896 63.0308 129.269 63.041 147.932 63.0058C149.025 63.0038 149.088 63.4522 149.088 64.3058C149.07 89.2854 149.074 112.328 149.074 137.307C149.074 139.854 149.37 140.142 151.99 140.142C156.445 140.142 162.191 140.143 166.646 140.141C168.613 140.14 169.06 139.69 169.06 137.712C169.061 112.732 169.06 89.6901 169.06 64.7099C169.06 64.2136 169.06 63.7167 169.06 63.0308C169.606 63.0308 170.002 63.0308 170.397 63.0308C186.969 63.0308 202.895 63.0308 219.466 63.0313C220.784 63.0313 220.788 63.0338 220.788 64.342C220.789 94.9247 220.784 125.292 220.808 155.876C220.809 156.755 220.502 157.269 219.797 157.75C213.883 161.788 207.788 165.534 201.428 168.847C193.874 172.783 186.054 176.121 177.982 178.871C168.864 181.977 159.52 184.224 150.01 185.76C146.339 186.352 142.62 186.68 138.913 187.017C135.736 187.305 132.547 187.499 129.359 187.616C125.723 187.751 122.079 187.878 118.445 187.778C114.755 187.677 111.071 187.335 107.39 187.028C101.297 186.52 95.2458 185.715 89.2629 184.438C83.1746 183.139 77.1434 181.65 71.2089 179.756C63.691 177.357 56.389 174.449 49.2851 171.049C39.3334 166.287 29.9677 160.573 21.1674 153.962C20.7616 153.657 20.4214 152.981 20.4208 152.477C20.3856 122.929 20.3918 93.5946 20.3758 64.0459C20.3754 63.2795 20.5753 63.0135 21.3945 63.0145ZM24.1009 21.5044C25.8332 20.6376 27.7185 20.2539 29.6626 20.2539C90.2679 20.2493 150.874 20.2447 211.479 20.2671C214.442 20.2682 217.205 21.0167 219.406 23.181C220.345 24.1039 220.799 25.1786 220.794 26.4863C220.778 30.3547 220.789 37.4519 220.788 41.3203C220.787 42.6177 220.784 42.6208 219.456 42.6208C186.487 42.6213 153.519 42.6213 120.55 42.6213C87.6826 42.6213 54.8152 42.6223 21.9478 42.6182C20.2129 42.6182 20.3959 42.8006 20.3915 41.0532C20.3826 37.5186 20.5003 30.7501 20.3539 27.2211C20.2346 24.3409 21.759 22.6765 24.1009 21.5044ZM240.967 132.041C240.967 95.7905 240.97 59.54 240.956 23.2891C240.956 22.2693 240.919 21.2191 240.684 20.2345C239.351 14.6518 236.447 10.0384 231.922 6.49567C226.245 2.05297 219.749 0.000792809 212.576 0.000792809C151.233 -0.000226393 89.8892 -0.00328101 28.5451 0.0165934C26.7412 0.017103 24.9121 0.112913 23.1381 0.416635C17.2478 1.42514 11.9297 3.77288 7.58334 7.93071C2.67814 12.6226 -0.00178904 18.3495 8.96048e-07 25.2699C0.0179003 96.4346 0.00974608 167.599 0.0200879 238.764C0.0202868 240.097 0.00835397 241.458 0.254172 242.758C1.28656 248.216 3.88496 252.869 8.05292 256.511C13.9326 261.648 20.8891 264.001 28.6789 264C89.9543 263.993 151.23 264.003 212.506 263.971C214.746 263.97 217.036 263.821 219.218 263.348C226.17 261.84 232.179 258.631 236.496 252.789C239.363 248.91 241.008 244.629 241 239.662C240.939 203.788 240.967 167.914 240.967 132.041Z" fill="#F25227"/>
</svg>
