<svg width="1333" height="162" viewBox="8 0 1333 162" fill="none" xmlns="http://www.w3.org/2000/svg">
<path d="M0 0H1353V126L1211.5 128L1137 119.5L992 141L896.5 121L831 137.5L694.5 148L628.5 150L567.5 140.5L506.5 148L455.5 134L364 148H277L231 138L157 150.5L45.5 153L15.5 129L0 126V0Z"
fill="#D9D9D9"/>
<path d="M10 125.282C20.5065 125.282 37.264 154.327 47.7705 154.327C56.5849 154.327 65.9118 155.256 74.6547 154.224C82.2309 153.329 89.8809 150.606 97.4188 150.606C115.616 150.606 133.814 150.606 152.011 150.606C164.853 150.606 176.854 141.302 189.711 141.302C201.86 141.302 213.397 139.441 224.836 139.441C229.481 139.441 235.768 138.378 240.184 139.855C244.939 141.445 247.378 144.706 252.75 145.023C254.852 145.147 260.835 146.132 262.433 147.298C269.735 152.628 283.055 150.606 292.098 150.606C304.939 150.606 317.78 150.606 330.622 150.606C346.662 150.606 362.162 146.884 377.901 146.884C395.48 146.884 410.106 137.58 427.034 137.58C439.312 137.58 452.385 136.196 464.528 137.994C476.473 139.763 485.793 145.023 498.211 145.023C505.524 145.023 512.837 145.023 520.151 145.023C528.293 145.023 535.228 144.832 542.812 141.302C547.47 139.134 550.762 137.58 555.79 137.58C580.916 137.58 604.008 151.746 629.13 152.466C646.367 152.961 664.328 152.466 681.765 152.466C686.915 152.466 691.994 153.119 696.701 151.019C702.018 148.647 709.354 145.023 715.345 145.023C733.442 145.023 752.669 139.441 770.865 139.441C788.89 139.441 806.632 142.123 824.633 141.302C840.814 140.564 858.337 135.732 873.251 130.551C891.412 124.242 901.16 124.864 920.221 128.69C937.811 132.221 953.327 141.302 971.93 141.302C979.037 141.302 986.145 141.302 993.252 141.302C1030.14 141.302 1065.81 127.268 1103.16 126.416C1118.56 126.065 1135.17 121.433 1150.54 126.002C1172.98 132.676 1198.27 130.137 1221.61 130.137C1260.91 130.137 1298.95 125.283 1338.32 125.283"
stroke="black" stroke-width="13" stroke-linecap="round"/>
</svg>
