<svg width="1333" height="45" viewBox="6 0 1333 45" fill="none" xmlns="http://www.w3.org/2000/svg">
<path d="M7 8.28196C17.5065 8.28196 34.264 37.3271 44.7705 37.3271C53.5849 37.3271 62.9118 38.256 71.6547 37.2237C79.2309 36.3292 86.8809 33.6056 94.4188 33.6056C112.616 33.6056 130.814 33.6056 149.011 33.6056C161.853 33.6056 173.854 24.3019 186.711 24.3019C198.86 24.3019 210.397 22.4412 221.836 22.4412C226.481 22.4412 232.768 21.3776 237.184 22.8547C241.939 24.4454 244.378 27.7062 249.75 28.0234C251.852 28.1475 257.835 29.1317 259.433 30.2976C266.735 35.6276 280.055 33.6056 289.098 33.6056C301.939 33.6056 314.78 33.6056 327.622 33.6056C343.662 33.6056 359.162 29.8841 374.901 29.8841C392.48 29.8841 407.106 20.5804 424.034 20.5804C436.312 20.5804 449.385 19.1959 461.528 20.9939C473.473 22.7626 482.793 28.0234 495.211 28.0234C502.524 28.0234 509.837 28.0234 517.151 28.0234C525.293 28.0234 532.228 27.8318 539.812 24.3019C544.47 22.1336 547.762 20.5804 552.79 20.5804C577.916 20.5804 601.008 34.746 626.13 35.4664C643.367 35.9606 661.328 35.4664 678.765 35.4664C683.915 35.4664 688.994 36.1187 693.701 34.0191C699.018 31.6473 706.354 28.0234 712.345 28.0234C730.442 28.0234 749.669 22.4412 767.865 22.4412C785.89 22.4412 803.632 25.1231 821.633 24.3019C837.814 23.5638 855.337 18.732 870.251 13.551C888.412 7.24186 898.16 7.8643 917.221 11.6902C934.811 15.2207 950.327 24.3019 968.93 24.3019C976.037 24.3019 983.145 24.3019 990.252 24.3019C1027.14 24.3019 1062.81 10.2678 1100.16 9.41597C1115.56 9.06468 1132.17 4.43293 1147.54 9.00247C1169.98 15.6759 1195.27 13.1375 1218.61 13.1375C1257.91 13.1375 1295.95 8.28295 1335.32 8.28295" stroke="black" stroke-width="13" stroke-linecap="round"/>
</svg>