<svg width="3843" height="158" fill="none" xmlns="http://www.w3.org/2000/svg"><path class="prefix__button" d="M0-1h249l-10 138-48-2.5-48 10.5-92.5 3.5L29 145 0 118V-1zM257-1h372.5v82.5L618 146l-62-12.5-69.5 6L416 131l-64 10-85 4-19.5-8L257-1z" fill="#DABAA8"/><path class="prefix__button" d="M629.5-2h356l7 39.5-7 41.5v40.5L977 135l-47.5-3.5-46-12-61 15.5-31-5-64 10-85 4-18.5 2.5L629.5-2z" fill="#DABAA8"/><path d="M0 121.309c10.507 0 27.264 29.045 37.77 29.045 8.815 0 18.142.929 26.885-.103 7.576-.895 15.226-3.618 22.764-3.618h54.592c12.842 0 24.843-9.304 37.7-9.304 12.149 0 23.686-1.861 35.125-1.861 4.645 0 10.932-1.063 15.348.414 4.755 1.59 7.194 4.851 12.566 5.168 2.102.124 8.085 1.109 9.683 2.275 7.302 5.33 20.622 3.308 29.665 3.308h38.524c16.04 0 31.54-3.722 47.279-3.722 17.579 0 32.205-9.304 49.133-9.304 12.278 0 25.351-1.384 37.494.414 11.945 1.769 21.265 7.029 33.683 7.029h21.94c8.142 0 15.077-.191 22.661-3.721 4.658-2.168 7.95-3.722 12.978-3.722 25.126 0 48.218 14.166 73.34 14.886 17.237.495 35.198 0 52.635 0 5.15 0 10.229.653 14.936-1.447 5.317-2.372 12.653-5.996 18.644-5.996 18.097 0 37.324-5.582 55.519-5.582 18.026 0 35.768 2.682 53.769 1.861 16.181-.738 33.704-5.57 48.618-10.751 18.161-6.309 27.909-5.687 46.971-1.861 17.589 3.531 33.105 12.612 51.708 12.612h21.322c36.888 0 72.558-14.034 109.908-14.886 15.4-.351 32.01-4.983 47.38-.414 22.44 6.674 47.73 4.135 71.07 4.135 39.3 0 77.34-3.721 116.71-3.721 17.07 0 35.09 1.784 52.02-.103 31.63-3.528 63.17-7.34 95.17-7.34 12.97 0 24.68 2.403 37.39 3.618 8.28.792 16.17.16 24.42 1.964 7.88 1.726 15.55 5.362 23.69 5.582 23.76.645 47.25 1.861 71.07 1.861 36.29 0 71.7-3.721 107.74-3.721M1738.4 124.176h25.58c7.9 0 15.7-2.03 23.6-2.03 6.08 0 12.25-.508 18.41-.508 3.89 0 8.04-.45 11.83.395 5.37 1.197 10.64 3.435 16.16 4.174 9.69 1.297 19.36 1.231 29.14-.113 8.73-1.2 17.28-3.335 26-4.428 5.31-.666 10.4-1.043 15.82-1.043H1920" stroke="#000" stroke-width="13" stroke-linecap="round"/><path d="M237 139c3.518 0 4.508-7.083 5.308-9.466 2.253-6.715 3.033-13.389 3.033-20.399 0-8.604 2.07-16.995 2.275-25.615.176-7.447-.384-16.65 1.348-23.954 2.751-11.606 6.036-24.3 2.485-35.699-2.04-6.547-.8-14.95-.8-21.867M296.392 34c0 8.883-.797 17.912-.797 26.894v12.982c0 3.282 1.218 6.011 1.55 9.172.354 3.362-.698 7.148.488 10.368 1.108 3.008 1.152 5.342 1.152 8.551 0 4.613 1.595 8.748 1.595 13.381" stroke="#000" stroke-width="13" stroke-linecap="round"/><path d="M294 35.595c9.469 0 19.96.126 28.711 3.81 3.662 1.542 3.19 6.455 3.19 10.147 0 9.332-15.495 12.93-22.331 16.349M343.447 40.38c0 13.9-1.595 27.975-1.595 41.87v8.773c0 2.763-2.393 9.037-2.393 2.791" stroke="#000" stroke-width="13" stroke-linecap="round"/><path d="M341.852 41.975c4.092-2.166 5.791-2.76 10.81-2.215 5.399.585 11.212 3.246 15.508 6.026 2.322 1.502 2.393 4.08 2.393 6.557 0 3.221-1.895 4.492-4.786 5.937-3.049 1.525-15.194 1.65-11.475 6.513 4.911 6.422 12.637 10.609 16.261 17.856M400.071 45.963c-4.015 0-6.486-.034-9.57 2.88-4.298 4.058-4.91 12.065-4.785 17.678.25 11.289 12.383 12.938 21.178 12.938 8.305 0 14.003-11.17 11.033-18.432-3.595-8.788-7.314-13.47-17.058-13.47M444.733 40.38c0 13.784 6.76 27.776-2.747 39.876-2.884 3.671-5.833 5.917-9.216 8.817-2.845 2.44-7.525 1.551-11.166 1.551M463.873 46.76c-2.062.774-3.078 14.16-3.234 16.261-.416 5.62-.753 11.145-.753 16.837 0 2.814 14.673-.022 16.748-.399M463.873 58.723c7.35 0 14.343.955 21.533 2.393M466.266 43.57h14.355M512.523 45.963c-2.548 0-5.874-.511-8.374.044-2.387.53-5.002 6.355-5.982 8.286-2.024 3.988-4.45 11.224-.797 15.241 3.611 3.973 23.549 10.677 27.116 3.545M541.233 48.355v14.002c0 6.04 1.595 11.947 1.595 17.9M525.282 42.773c3.659 0 7.292 2.711 10.988 3.367 3.866.686 6.754 2.215 10.811 2.215 3.948 0 6.852.81 10.9 0M576.324 46.76c-3.477 0-7.102-1.107-8.95 2.127-4.972 8.702 5.556 11.358 10.899 15.73 3.788 3.098 7.764 7.723 5.938 13.203-1.588 4.763-14.446 3.234-18.255 3.234M690.601 42.677h-2.87c-2.944 0-5.389 2.07-8.178 2.753-2.152.526-4.43 2.018-6.409 3.047-1.426.741-3.142 1.746-4.286 2.89-1.573 1.573-3.904 3.4-4.521 5.622-1.216 4.379-1.337 8.954-1.337 13.525 0 3.44.113 6.52.983 9.87.67 2.579 1.738 4.842 2.733 7.273 2.071 5.063 6.589 7.786 11.736 8.965 5.687 1.301 11.822 1.258 17.634 1.258 2.152 0 3.866-1.416 5.839-1.416M728.11 57.893c-4.327 0-7.465 2.853-10.419 5.859-4.058 4.129-5.409 11.476-4.246 17.123 1.079 5.242 6.195 7.792 10.773 9.22 5.834 1.82 12.948.463 16.985-4.247 5.341-6.23 7.795-18.548 1.416-24.927-2.312-2.312-3.985-3.381-7.254-3.381-2.159 0-4.538.17-5.839 2.123M760.312 86.91c0-6.787 1.664-14.011 2.653-20.72.365-2.474.53-4.966 1.062-7.412.073-.336.164-2.771.609-1.435 1.917 5.75 6.735 10.717 9.437 16.12 2.036 4.072 3.536 8.397 5.701 12.385.349.644 2.056 3.1 2.143 2.969 1.164-1.746 1.222-4.187 1.749-6.193.761-2.888.729-5.898 1.416-8.807.49-2.078.496-4.157.786-6.251.308-2.224 1.083-4.419 1.317-6.645.233-2.211.135-3.611 1.082-5.505M810.913 47.278c0 10.259-.353 20.567-.353 30.786v5.484c0 .823.059 4.66.353 4.07M793.575 42.324a49.31 49.31 0 017.195 1.199c3.321.808 6.799.364 10.164.747 4.816.547 9.871.26 14.666-.157 1.254-.11 2.232-.05 3.44-.453.653-.217 1.395-.629 2.044-.629 1.486 0 2.945-1.061 4.247-1.061M849.13 45.862c-1.483 1.78-2.303 4.08-3.695 5.937-1.934 2.578-3.64 5.446-4.896 8.434-1.518 3.616-3.323 7.52-3.813 11.441-.427 3.415-3.165 6.814-3.165 10.282" stroke="#000" stroke-width="13" stroke-linecap="round"/><path d="M848.777 46.57c1.935 0 2.27-.012 3.736 1.18 1.016.825 1.784 2.273 2.28 3.499.741 1.83 1.409 3.655 2.123 5.504.373.965.243 1.942.551 2.91.441 1.386 1.156 2.56 1.218 4.05.105 2.463 1.37 4.799 1.416 7.116.036 1.783.496 3.133.983 4.836.236.825.467 5.566-.275 5.937M837.453 70.279H855.5M888.763 40.908c-5.14 0-9.802 5.003-11.52 9.554-2.128 5.641-2.915 13.947-.157 19.463 2.42 4.84 10.01 7.33 14.941 7.43 3.342.069 6.661.448 10.026.355 1.06-.03 1.534-2.281 2.634-2.831M920.964 35.6c0 4.364-.354 8.766-.354 13.172 0 3.267-.296 6.994.433 10.183.954 4.176 1.691 17.023 1.691 12.739M906.103 31c.956.06 1.892.735 2.83.983 2.052.543 4.13 1.086 6.213 1.494 3.816.747 7.68.585 11.539.727 4.246.158 8.273.624 12.327-.727M976 137.85c0-2.215 3.593-3.039 4.731-5.031 1.545-2.703 3.588-5.657 4.581-8.636 1.934-5.801.924-13.6.188-19.488-.854-6.829-2.065-14.047-2.065-20.914V72.328c0-1.748.423-3.088.675-4.768.235-1.56 2.028-2.083 2.028-3.755 0-1.275.571-2.049 1.389-3.004 1.646-1.92 2.056-4.189 3.342-6.308 1.935-3.187.676-9.242.676-12.88V25.13c0-8.348-4.731-14.846-4.731-23.13M617.316 149.669c0-6.857 6.032-11.411 6.032-18.848 0-5.282 2.704-10.236 3.015-15.831.292-5.258 3.016-10.764 3.016-15.832V74.279 3.415M70.854 108.169c19.886 0 39.651-1.366 59.547-1.366 2.34 0 15.15 1.371 15.267-1.518.209-5.169 0-10.388 0-15.56 0-9.16.683-19.161-1.079-28.196-.726-3.72-.965-5.186 2.877-5.997 4.33-.913 8.405-1.328 12.989-1.328 2.157 0 3.71.444 1.399-1.404-4.052-3.24-8.01-6.195-12.589-8.842-10.78-6.231-21.18-13.273-32.212-18.975-3.721-1.923-7.595-3.482-11.35-5.313-1.424-.695-3.023-1.67-4.636-1.67-2.647 0-4.593 1.654-6.394 3.34-5.427 5.079-12.01 8.651-16.785 14.269-4.525 5.322-8.974 10.873-14.068 15.711-3.201 3.04-4.836 6.84-8.792 9.032-3.402 1.885-8.643 5.521-1.359 4.44 8.982-1.333 18.12-1.184 26.896-3.036 2.266-.478-1.023 25.983-1.119 28.615-.2 5.513-.439 11.316-1.718 16.697-.499 2.098-1.97 7.388.32 7.932" stroke="#000" stroke-width="13" stroke-linecap="round"/><g stroke="red" stroke-width="13" stroke-linecap="round"><path d="M159.417 28.028c.18-1.439 3.044-3.065 3.573-4.799.866-2.832 2.399-6.038 2.399-8.984M176.874 64.78c6.9 1.271 14.091 3.216 21.133 3.216M171.361 92.345c.171 4.436 3.715 8.367 5.054 12.506 1.461 4.515 1.837 8.967 1.837 13.68M46.402 95.56c-5.173 3.175-11.009 7.319-13.782 12.864M31.701 70.293c-.849-.755-2.327-.887-3.343-1.48-4.284-2.499-8.47-5.175-12.736-7.708M56.51 31.703c-3.477-2.731-5.33-7.416-7.81-11-1.371-1.98-3.242-3.765-4.136-5.998"/></g><path d="M1914.17 123.625c121.64 0 244.19-2.185 366.26-2.185 119.13 0 238.26 4.369 357.28 4.369 26.72 0 53.18-1.74 79.86-2.184 22.93-.383 46.39-7.029 69.42-8.617 39.11-2.697 80.3-2.306 119.42-2.306 88.05 0 175.98-2.184 263.83-2.184h53.4c25.18 0 56.14-4.787 80.83 1.092 17.42 4.148 35.79 3.946 53.52 6.554 20.1 2.955 39.95 7.275 60.31 7.645 17.49.318 34.64 4.369 52.31 4.369H3712.96c28.14 0 56.37 1.032 84.23-2.063 15.11-1.68 30.3-6.675 45.87-6.675" stroke="#000" stroke-width="13" stroke-linecap="round"/></svg>