<svg width="3843" height="158" viewBox="0 0 3843 158" fill="none" xmlns="http://www.w3.org/2000/svg">
<path class="button" d="M0 -1H249L239 137L191 134.5L143 145L50.5 148.5L29 145L0 118V-1Z" fill="#DABAA8"/>
<path class="button" d="M257 -1H629.5V81.5L618 146L556 133.5L486.5 139.5L416 131L352 141L267 145L247.5 137L257 -1Z" fill="#DABAA8"/>
<path class="button" d="M629.5 -2H985.5L992.5 37.5L985.5 79V119.5L977 135L929.5 131.5L883.5 119.5L822.5 135L791.5 130L727.5 140L642.5 144L624 146.5L629.5 -2Z" fill="#DABAA8"/>
<path d="M0 121.309C10.5065 121.309 27.264 150.354 37.7705 150.354C46.5849 150.354 55.9118 151.283 64.6547 150.251C72.2309 149.356 79.8809 146.633 87.4188 146.633C105.616 146.633 123.814 146.633 142.011 146.633C154.853 146.633 166.854 137.329 179.711 137.329C191.86 137.329 203.397 135.468 214.836 135.468C219.481 135.468 225.768 134.405 230.184 135.882C234.939 137.472 237.378 140.733 242.75 141.05C244.852 141.174 250.835 142.159 252.433 143.325C259.735 148.655 273.055 146.633 282.098 146.633C294.939 146.633 307.781 146.633 320.622 146.633C336.662 146.633 352.162 142.911 367.901 142.911C385.48 142.911 400.106 133.607 417.034 133.607C429.312 133.607 442.385 132.223 454.528 134.021C466.473 135.79 475.793 141.05 488.211 141.05C495.524 141.05 502.837 141.05 510.151 141.05C518.293 141.05 525.228 140.859 532.812 137.329C537.47 135.161 540.762 133.607 545.79 133.607C570.916 133.607 594.008 147.773 619.13 148.493C636.367 148.988 654.328 148.493 671.765 148.493C676.915 148.493 681.994 149.146 686.701 147.046C692.018 144.674 699.354 141.05 705.345 141.05C723.442 141.05 742.669 135.468 760.864 135.468C778.89 135.468 796.632 138.15 814.633 137.329C830.814 136.591 848.337 131.759 863.251 126.578C881.412 120.269 891.16 120.891 910.222 124.717C927.811 128.248 943.327 137.329 961.93 137.329C969.037 137.329 976.145 137.329 983.252 137.329C1020.14 137.329 1055.81 123.295 1093.16 122.443C1108.56 122.092 1125.17 117.46 1140.54 122.029C1162.98 128.703 1188.27 126.164 1211.61 126.164C1250.91 126.164 1288.95 122.443 1328.32 122.443C1345.39 122.443 1363.41 124.227 1380.34 122.34C1411.97 118.812 1443.51 115 1475.51 115C1488.48 115 1500.19 117.403 1512.9 118.618C1521.18 119.41 1529.07 118.778 1537.32 120.582C1545.2 122.308 1552.87 125.944 1561.01 126.164C1584.77 126.809 1608.26 128.025 1632.08 128.025C1668.37 128.025 1703.78 124.304 1739.82 124.304" stroke="black" stroke-width="13" stroke-linecap="round"/>
<path d="M1738.4 124.176C1746.93 124.176 1755.45 124.176 1763.98 124.176C1771.88 124.176 1779.68 122.146 1787.58 122.146C1793.66 122.146 1799.83 121.638 1805.99 121.638C1809.88 121.638 1814.03 121.188 1817.82 122.033C1823.19 123.23 1828.46 125.468 1833.98 126.207C1843.67 127.504 1853.34 127.438 1863.12 126.094C1871.85 124.894 1880.4 122.759 1889.12 121.666C1894.43 121 1899.52 120.623 1904.94 120.623C1909.98 120.623 1915.13 120.623 1920 120.623" stroke="black" stroke-width="13" stroke-linecap="round"/>
<path d="M237 139C240.518 139 241.508 131.917 242.308 129.534C244.561 122.819 245.341 116.145 245.341 109.135C245.341 100.531 247.411 92.1398 247.616 83.52C247.792 76.0731 247.232 66.8707 248.964 59.5663C251.715 47.9601 255 35.2651 251.449 23.8675C249.409 17.3201 250.649 8.91687 250.649 2" stroke="black" stroke-width="13" stroke-linecap="round"/>
<path d="M296.392 34C296.392 42.8827 295.595 51.9122 295.595 60.8944C295.595 65.2217 295.595 69.549 295.595 73.8763C295.595 77.1584 296.813 79.887 297.145 83.0479C297.499 86.41 296.447 90.1962 297.633 93.4157C298.741 96.4243 298.785 98.7579 298.785 101.967C298.785 106.58 300.38 110.715 300.38 115.348" stroke="black" stroke-width="13" stroke-linecap="round"/>
<path d="M294 35.595C303.469 35.595 313.96 35.7209 322.711 39.4054C326.373 40.9471 325.901 45.8601 325.901 49.5517C325.901 58.8843 310.406 62.4829 303.57 65.901" stroke="black" stroke-width="13" stroke-linecap="round"/>
<path d="M343.447 40.3801C343.447 54.2805 341.852 68.3553 341.852 82.2503C341.852 85.1745 341.852 88.0988 341.852 91.0231C341.852 93.7856 339.459 100.06 339.459 93.8144" stroke="black" stroke-width="13" stroke-linecap="round"/>
<path d="M341.852 41.9752C345.944 39.8086 347.643 39.2155 352.662 39.7598C358.061 40.3452 363.874 43.0056 368.17 45.7856C370.492 47.2882 370.563 49.8657 370.563 52.343C370.563 55.5641 368.668 56.8348 365.777 58.2802C362.728 59.8049 350.583 59.9301 354.302 64.7933C359.213 71.2154 366.939 75.4019 370.563 82.649" stroke="black" stroke-width="13" stroke-linecap="round"/>
<path d="M400.071 45.9628C396.056 45.9628 393.585 45.9295 390.501 48.8427C386.203 52.9014 385.591 60.9084 385.716 66.5212C385.966 77.8098 398.099 79.4589 406.894 79.4589C415.199 79.4589 420.897 68.2887 417.927 61.0272C414.332 52.2392 410.613 47.5578 400.869 47.5578" stroke="black" stroke-width="13" stroke-linecap="round"/>
<path d="M444.733 40.3801C444.733 54.1641 451.493 68.1565 441.986 80.2564C439.102 83.9271 436.153 86.1734 432.77 89.0735C429.925 91.5122 425.245 90.6243 421.604 90.6243" stroke="black" stroke-width="13" stroke-linecap="round"/>
<path d="M463.873 46.7604C461.811 47.5336 460.795 60.9197 460.639 63.0211C460.223 68.6419 459.886 74.1658 459.886 79.8577C459.886 82.6721 474.559 79.8362 476.634 79.459" stroke="black" stroke-width="13" stroke-linecap="round"/>
<path d="M463.873 58.7233C471.223 58.7233 478.216 59.6777 485.406 61.1158" stroke="black" stroke-width="13" stroke-linecap="round"/>
<path d="M466.266 43.5703H480.621" stroke="black" stroke-width="13" stroke-linecap="round"/>
<path d="M512.523 45.9628C509.975 45.9628 506.649 45.4515 504.149 46.0072C501.762 46.5375 499.147 52.3617 498.167 54.2926C496.143 58.2805 493.717 65.5167 497.37 69.5342C500.981 73.507 520.919 80.2113 524.486 73.0787" stroke="black" stroke-width="13" stroke-linecap="round"/>
<path d="M541.233 48.3554C541.233 43.6884 541.233 57.6895 541.233 62.3565C541.233 68.3963 542.828 74.3036 542.828 80.2565" stroke="black" stroke-width="13" stroke-linecap="round"/>
<path d="M525.282 42.7727C528.941 42.7727 532.574 45.4842 536.27 46.14C540.136 46.8259 543.024 48.3554 547.081 48.3554C551.029 48.3554 553.933 49.1649 557.981 48.3554" stroke="black" stroke-width="13" stroke-linecap="round"/>
<path d="M576.324 46.7604C572.847 46.7604 569.222 45.6533 567.374 48.8871C562.402 57.5885 572.93 60.2446 578.273 64.6161C582.061 67.7152 586.037 72.34 584.211 77.8196C582.623 82.5832 569.765 81.054 565.956 81.054" stroke="black" stroke-width="13" stroke-linecap="round"/>
<path d="M690.601 42.6774C689.644 42.6774 688.688 42.6774 687.731 42.6774C684.787 42.6774 682.342 44.7478 679.553 45.4296C677.401 45.9556 675.123 47.4476 673.144 48.4768C671.718 49.2183 670.002 50.2231 668.858 51.3666C667.285 52.9401 664.954 54.7673 664.337 56.9891C663.121 61.3676 663 65.9434 663 70.5144C663 73.9541 663.113 77.0342 663.983 80.3832C664.653 82.9625 665.721 85.2261 666.716 87.657C668.787 92.7198 673.305 95.4432 678.452 96.6215C684.139 97.9233 690.274 97.8797 696.086 97.8797C698.238 97.8797 699.952 96.4642 701.925 96.4642" stroke="black" stroke-width="13" stroke-linecap="round"/>
<path d="M728.11 57.8934C723.783 57.8934 720.645 60.7461 717.691 63.7518C713.633 67.8807 712.282 75.2278 713.445 80.8747C714.524 86.1172 719.64 88.6668 724.218 90.0947C730.052 91.9147 737.166 90.5583 741.203 85.8484C746.544 79.6176 748.998 67.3003 742.619 60.9209C740.307 58.6088 738.634 57.5396 735.365 57.5396C733.206 57.5396 730.827 57.7103 729.526 59.6627" stroke="black" stroke-width="13" stroke-linecap="round"/>
<path d="M760.312 86.91C760.312 80.1232 761.976 72.899 762.965 66.1895C763.33 63.7157 763.495 61.224 764.027 58.7781C764.1 58.4423 764.191 56.0069 764.636 57.343C766.553 63.0922 771.371 68.0602 774.073 73.4633C776.109 77.5348 777.609 81.86 779.774 85.8484C780.123 86.4918 781.83 88.9474 781.917 88.8169C783.081 87.0709 783.139 84.6298 783.666 82.6243C784.427 79.7355 784.395 76.7263 785.082 73.8171C785.572 71.7389 785.578 69.6597 785.868 67.5656C786.176 65.3416 786.951 63.147 787.185 60.9209C787.418 58.7099 787.32 57.3097 788.267 55.4164" stroke="black" stroke-width="13" stroke-linecap="round"/>
<path d="M810.913 47.2776C810.913 57.537 810.56 67.8448 810.56 78.0635C810.56 79.8918 810.56 81.72 810.56 83.5483C810.56 84.3706 810.619 88.2075 810.913 87.6177" stroke="black" stroke-width="13" stroke-linecap="round"/>
<path d="M793.575 42.3236C795.999 42.5439 798.402 42.9467 800.77 43.5228C804.091 44.3306 807.569 43.8875 810.934 44.2698C815.75 44.8171 820.805 44.5295 825.6 44.1126C826.854 44.0034 827.832 44.0632 829.04 43.6604C829.693 43.4428 830.435 43.0313 831.084 43.0313C832.57 43.0313 834.029 41.9697 835.331 41.9697" stroke="black" stroke-width="13" stroke-linecap="round"/>
<path d="M849.13 45.8622C847.647 47.6423 846.827 49.9429 845.435 51.7992C843.501 54.3766 841.795 57.2446 840.539 60.2329C839.021 63.8493 837.216 67.7529 836.726 71.6744C836.299 75.0888 833.561 78.4882 833.561 81.956" stroke="black" stroke-width="13" stroke-linecap="round"/>
<path d="M848.777 46.5698C850.712 46.5698 851.047 46.5584 852.513 47.7494C853.529 48.5755 854.297 50.0231 854.793 51.2487C855.534 53.0794 856.202 54.904 856.916 56.7532C857.289 57.7182 857.159 58.6946 857.467 59.6627C857.908 61.0489 858.623 62.2231 858.685 63.7124C858.79 66.1762 860.055 68.512 860.101 70.829C860.137 72.6117 860.597 73.9616 861.084 75.665C861.32 76.4902 861.551 81.2311 860.809 81.602" stroke="black" stroke-width="13" stroke-linecap="round"/>
<path d="M837.453 70.2786H855.5" stroke="black" stroke-width="13" stroke-linecap="round"/>
<path d="M888.763 40.9081C883.623 40.9081 878.961 45.9114 877.243 50.4623C875.115 56.1035 874.328 64.4094 877.086 69.9247C879.506 74.7648 887.096 77.2551 892.027 77.3557C895.369 77.424 898.688 77.8031 902.053 77.7096C903.113 77.6801 903.587 75.4288 904.687 74.8787" stroke="black" stroke-width="13" stroke-linecap="round"/>
<path d="M920.964 35.6002C920.964 39.9643 920.61 44.3661 920.61 48.7717C920.61 52.0389 920.314 55.7664 921.043 58.955C921.997 63.1309 922.734 75.9776 922.734 71.694" stroke="black" stroke-width="13" stroke-linecap="round"/>
<path d="M906.103 31C907.059 31.0598 907.995 31.7346 908.933 31.9829C910.985 32.526 913.063 33.0695 915.146 33.477C918.962 34.2238 922.826 34.0615 926.685 34.2044C930.931 34.3616 934.958 34.8283 939.012 33.477" stroke="black" stroke-width="13" stroke-linecap="round"/>
<path d="M976 137.85C976 135.635 979.593 134.811 980.731 132.819C982.276 130.116 984.319 127.162 985.312 124.183C987.246 118.382 986.236 110.583 985.5 104.695C984.646 97.8662 983.435 90.6482 983.435 83.7806C983.435 79.9632 983.435 76.1457 983.435 72.3283C983.435 70.5796 983.858 69.2401 984.11 67.5596C984.345 65.9993 986.138 65.4766 986.138 63.8048C986.138 62.5296 986.709 61.7562 987.527 60.8009C989.173 58.8812 989.583 56.612 990.869 54.4928C992.804 51.3058 991.545 45.2506 991.545 41.6136C991.545 36.119 991.545 30.6245 991.545 25.1299C991.545 16.7822 986.814 10.2836 986.814 2" stroke="black" stroke-width="13" stroke-linecap="round"/>
<path d="M617.316 149.669C617.316 142.812 623.348 138.258 623.348 130.821C623.348 125.539 626.052 120.585 626.363 114.99C626.655 109.732 629.379 104.226 629.379 99.158C629.379 90.8652 629.379 82.5723 629.379 74.2795C629.379 50.6575 629.379 27.0356 629.379 3.41357" stroke="black" stroke-width="13" stroke-linecap="round"/>
<path d="M70.8538 108.169C90.7399 108.169 110.505 106.803 130.401 106.803C132.741 106.803 145.551 108.174 145.668 105.285C145.877 100.116 145.668 94.8969 145.668 89.7254C145.668 80.5647 146.351 70.5635 144.589 61.5286C143.863 57.809 143.624 56.3433 147.466 55.5325C151.796 54.6188 155.871 54.2042 160.455 54.2042C162.612 54.2042 164.165 54.6482 161.854 52.8001C157.802 49.5606 153.844 46.6047 149.265 43.9577C138.485 37.7269 128.085 30.685 117.053 24.9828C113.332 23.0597 109.458 21.5006 105.703 19.6698C104.279 18.9754 102.68 18 101.067 18C98.42 18 96.474 19.6536 94.6728 21.3396C89.2464 26.4188 82.6628 29.9914 77.8876 35.6088C73.3634 40.9308 68.9145 46.4824 63.82 51.32C60.6187 54.3599 58.9836 58.1609 55.0278 60.3521C51.6257 62.2366 46.3849 65.873 53.669 64.7923C62.6512 63.4595 71.7885 63.6083 80.5652 61.7563C82.831 61.2782 79.5418 87.7392 79.4462 90.3705C79.246 95.8838 79.0075 101.687 77.7277 107.068C77.2291 109.166 75.7571 114.456 78.0475 115" stroke="black" stroke-width="13" stroke-linecap="round"/>
<g id="spikes">
<path d="M159.417 28.0276C159.597 26.5892 162.461 24.9627 162.99 23.2294C163.856 20.3971 165.389 17.1914 165.389 14.2454" stroke="#FF0000" stroke-width="13" stroke-linecap="round"/>
<path d="M176.874 64.7804C183.774 66.0514 190.965 67.9963 198.007 67.9963" stroke="#FF0000" stroke-width="13" stroke-linecap="round"/>
<path d="M171.361 92.345C171.532 96.7807 175.076 100.712 176.415 104.851C177.876 109.366 178.252 113.818 178.252 118.531" stroke="#FF0000" stroke-width="13" stroke-linecap="round"/>
<path d="M46.4024 95.5608C41.229 98.7354 35.393 102.879 32.6201 108.424" stroke="#FF0000" stroke-width="13" stroke-linecap="round"/>
<path d="M31.7014 70.2933C30.8521 69.5384 29.3741 69.4057 28.3579 68.813C24.0739 66.314 19.8875 63.6377 15.6221 61.1051" stroke="#FF0000" stroke-width="13" stroke-linecap="round"/>
<path d="M56.5091 31.703C53.0332 28.972 51.1809 24.2874 48.6991 20.7027C47.3289 18.7235 45.4578 16.9381 44.5645 14.7048" stroke="#FF0000" stroke-width="13" stroke-linecap="round"/>
</g>
<path d="M1914.17 123.625C2035.81 123.625 2158.36 121.44 2280.43 121.44C2399.56 121.44 2518.69 125.809 2637.71 125.809C2664.43 125.809 2690.89 124.069 2717.57 123.625C2740.5 123.242 2763.96 116.596 2786.99 115.008C2826.1 112.311 2867.29 112.702 2906.41 112.702C2994.46 112.702 3082.39 110.518 3170.24 110.518C3188.04 110.518 3205.84 110.518 3223.64 110.518C3248.82 110.518 3279.78 105.731 3304.47 111.61C3321.89 115.758 3340.26 115.556 3357.99 118.164C3378.09 121.119 3397.94 125.439 3418.3 125.809C3435.79 126.127 3452.94 130.178 3470.61 130.178C3483.19 130.178 3495.77 130.178 3508.35 130.178C3529.27 130.178 3550.18 130.178 3571.09 130.178C3618.38 130.178 3665.67 130.178 3712.96 130.178C3741.1 130.178 3769.33 131.21 3797.19 128.115C3812.3 126.435 3827.49 121.44 3843.06 121.44" stroke="black" stroke-width="13" stroke-linecap="round"/>
</svg>
