<svg width="1108" height="748" fill="none" xmlns="http://www.w3.org/2000/svg"><path d="M11.989 722.945c5.723 2.06 13.324 5.219 19.333 5.219 8.357 0 16.351-1.305 24.703-1.305 20.565 0 41.093-6.523 61.757-6.523h53.568c21.492 0 41.772-1.305 63.234-1.305 13.32 0 26.398.574 39.606 1.305 11.149.617 23.623.376 34.503 3.189 4.688 1.212 7.871 2.029 12.687 2.029 27.443 0 54.179-5.218 81.561-5.218 29.694 0 59.396.466 88.742 3.986 29.159 3.498 59.623 1.232 89.146 1.232 14.62 0 29.651 1.512 44.036-1.594 5.719-1.235 10.81-2.319 16.647-2.319 6.803 0 13.106 2.609 19.803 2.609 26.573 0 54.413 2.609 81.426 2.609h62.496c13.59 0 26.768-3.914 40.478-3.914 10.569 0 20.953-.426 31.348 1.885 9.557 2.124 20.484 3.334 30.275 3.334 18.447 0 37.052 1.304 55.313 1.304 15.406 0 30.643 2.237 46.189 1.305 3.64-.219 7.15-1.305 11.14-1.305 3.08 0 8.32 1.081 11.21-.652 5.19-3.116 14.28-2.337 19.94-.942 3.78.934 28.59 1.164 29-2.32 7.46-12.096 3.62-22.65 3.62-36.528v-74.362c0-8.14-2.89-15.557-3.62-23.483-.76-8.186-2.42-15.666-2.42-24.135 0-5.189 1.21-9.993 1.21-15.003 0-14.52 2.41-29.178 2.41-43.632 0-19.291 3.63-37.39 3.63-56.822 0-7.093 1.21-13.846 1.21-20.801 0-6.817-1.14-14.878.27-21.526 3.11-14.713 4.56-28.675 4.56-43.777v-23.482c0-8.832-2.57-17.601-3.56-26.165-1.16-10.069-3.69-19.538-3.69-29.933v-22.251c0-15.118 1.21-30.119 1.21-45.008 0-13.975-3.63-26.772-3.63-40.443 0-7.362 2.42-13.924 2.42-21.163v-21.744c0-6.837 2.07-12.93 2.42-19.714.41-7.957 1.21-15.796 1.21-23.99 0-25.212 1.2-50.889 1.2-75.739-4.67-10.098-26.13-1.305-33.83-1.305-8.27 0-17.33 2.48-25.91 2.61-8.68.131-17.37 0-26.05 0-20.563 0-41.038 1.304-61.485 1.304-16.257 0-32.152-3.295-48.197-3.914-10.846-.418-21.772 0-32.624 0-15.942 0-31.201-2.988-46.855 1.015-12.265 3.136-24.462 2.9-37.055 2.9H671.452c-50.089 0-99.821-3.915-149.829-3.915-17.053 0-35.926-2.424-52.896.29-11.652 1.864-23.028 2.32-34.773 2.32-13.614 0-26.548 3.985-39.873 6.233-8.707 1.468-18.84.386-27.657.29-15.533-.17-32.366-2.357-47.526-6.233-16.365-4.185-33.712-5.509-50.481-5.509-19.296 0-37.195 1.14-56.118 4.204-8.766 1.42-17.717 2.32-26.583 2.32-13.958 0-27.202-4.548-41.082-6.234-18.932-2.3-39.233-.29-58.267-.29-10.442 0-20.758 1.305-31.281 1.305-12.576 0-27.271.622-38.263 7.827 0 15.045 1.698 24.03 1.208 38.848-.148 4.479-1.72 15.699.537 19.57 1.533 2.628 4.974 3.313 5.438 6.812.278 2.108.067 4.394.067 6.523 0 7.674-1.562 15.563-3.625 22.903-3.719 13.226-3.625 26.075-3.625 39.718 0 12.852 3.245 24.827 3.625 37.543.248 8.301 6.466 17.47 4.766 25.73-3.938 19.131-6.857 38.807-12.62 57.475-3.191 10.336-.604 25.689-.604 36.529 0 12.862 1.208 25.626 1.208 38.413 0 26.745 9.666 51.693 9.666 78.276 0 37.094 2.43 75.12-3.692 111.47-1.703 10.116-5.974 21.204-5.974 31.383 0 11.962-3.656 26.311-.269 38.196 5.952 20.882 2.685 41.683 2.685 63.563 0 10.766-3.625 37.926-3.625 48.922zm0 0l19.19 5.218" stroke="#000" stroke-width="22" stroke-linecap="round"/></svg>