<svg width="1102" height="742" viewBox="0 0 1102 742" fill="none" xmlns="http://www.w3.org/2000/svg">
<image x="11" y="11" width="1080" height="720" fill="#FF0000"/>
<path d="M11.9889 722.945C17.7121 725.005 25.3129 728.164 31.3217 728.164C39.6787 728.164 47.6734 726.859 56.0247 726.859C76.5901 726.859 97.1184 720.336 117.782 720.336H171.35C192.842 720.336 213.122 719.031 234.584 719.031C247.904 719.031 260.982 719.605 274.19 720.336C285.339 720.953 297.813 720.712 308.693 723.525C313.381 724.737 316.564 725.554 321.38 725.554C348.823 725.554 375.559 720.336 402.941 720.336C432.635 720.336 462.337 720.802 491.683 724.322C520.842 727.82 551.306 725.554 580.829 725.554C595.449 725.554 610.48 727.066 624.865 723.96C630.584 722.725 635.675 721.641 641.512 721.641C648.315 721.641 654.618 724.25 661.315 724.25C687.888 724.25 715.728 726.859 742.741 726.859H805.237C818.827 726.859 832.005 722.945 845.715 722.945C856.284 722.945 866.668 722.519 877.063 724.83C886.62 726.954 897.547 728.164 907.338 728.164C925.785 728.164 944.39 729.468 962.651 729.468C978.057 729.468 993.294 731.705 1008.84 730.773C1012.48 730.554 1015.99 729.468 1019.98 729.468C1023.06 729.468 1028.3 730.549 1031.19 728.816C1036.38 725.7 1045.47 726.479 1051.13 727.874C1054.91 728.808 1079.72 729.038 1080.13 725.554C1087.59 713.458 1083.75 702.904 1083.75 689.026V614.663C1083.75 606.524 1080.86 599.107 1080.13 591.181C1079.37 582.995 1086.44 575.469 1086.44 567C1086.44 561.811 1078.92 557.053 1078.92 552.043C1091.5 538 1081.33 522.865 1081.33 508.411C1081.33 489.12 1084.96 471.021 1084.96 451.589C1084.96 444.496 1086.17 437.743 1086.17 430.788C1086.17 423.971 1085.03 415.91 1086.44 409.262C1089.55 394.549 1091 380.587 1091 365.485V342.003C1091 333.17 1088.43 324.402 1087.44 315.838C1086.28 305.769 1083.75 296.3 1083.75 285.905V263.654C1083.75 248.536 1084.96 233.535 1084.96 218.646C1084.96 204.671 1081.33 191.874 1081.33 178.203C1081.33 170.841 1083.75 164.279 1083.75 157.04V135.296C1083.75 128.459 1085.82 122.366 1086.17 115.582C1086.58 107.625 1087.38 99.7863 1087.38 91.5922C1087.38 66.3797 1088.58 40.7033 1088.58 15.853C1083.91 5.75529 1062.45 14.5484 1054.75 14.5484C1046.48 14.5484 1037.42 17.0271 1028.84 17.1576C1020.16 17.2895 1011.47 17.1576 1002.79 17.1576C982.227 17.1576 961.752 18.4622 941.305 18.4622C925.048 18.4622 909.153 15.1671 893.108 14.5484C882.262 14.1302 871.336 14.5484 860.484 14.5484C844.542 14.5484 829.283 11.56 813.629 15.5631C801.364 18.6992 789.167 18.4622 776.574 18.4622H671.452C621.363 18.4622 571.631 14.5484 521.623 14.5484C504.57 14.5484 485.697 12.1238 468.727 14.8383C457.075 16.702 445.699 17.1576 433.954 17.1576C420.34 17.1576 407.406 18.1426 394.081 20.3907C385.374 21.8594 375.241 20.7767 366.424 20.6806C350.891 20.5112 334.058 21.3242 318.898 17.4475C302.533 13.2627 285.186 11.9392 268.417 11.9392C249.121 11.9392 231.222 13.0781 212.299 16.1429C203.533 17.5625 194.582 18.4622 185.716 18.4622C171.758 18.4622 158.514 13.9151 144.634 12.2291C125.702 9.92947 105.401 11.9392 86.3672 11.9392C75.9248 11.9392 65.6086 13.2438 55.0857 13.2438C42.51 13.2438 27.8146 13.866 16.8229 21.0714C16.8229 36.1162 18.5213 45.1013 18.0311 59.9194C17.883 64.3977 16.311 75.6178 18.5682 79.4884C20.1009 82.1167 23.5425 82.8019 24.0055 86.3013C24.2844 88.4091 16.8229 98.3711 16.8229 100.5C16.8229 108.174 22.5114 108.387 20.4477 115.727C16.7291 128.953 16.8228 141.802 16.8228 155.445C16.8228 168.297 20.0678 180.272 20.4477 192.988C20.6957 201.289 18.7001 210.74 17 219C13.0624 238.131 18.3572 257.525 12.5938 276.193C9.40275 286.529 11.9897 301.882 11.9897 312.722C11.9897 325.584 13.198 338.347 13.198 351.135C13.198 377.88 19.1723 404.917 19.1723 431.5C19.1723 468.594 25.2936 504.531 19.1723 540.881C17.4689 550.997 13.198 562.085 13.198 572.264C13.198 584.226 9.54246 598.575 12.9294 610.46C18.8805 631.342 15.6145 652.143 15.6145 674.023C15.6145 684.789 11.9889 711.948 11.9889 722.945ZM11.9889 722.945L31.1783 728.163" stroke="black" stroke-width="22" stroke-linecap="round"/>
</svg>
